<?xml version="1.0" encoding="utf-8"?>
<!-- Generator: Adobe Illustrator 24.0.0, SVG Export Plug-In . SVG Version: 6.00 Build 0)  -->
<svg version="1.1" id="Layer_1" xmlns="http://www.w3.org/2000/svg" xmlns:xlink="http://www.w3.org/1999/xlink" x="0px" y="0px"
	 viewBox="0 0 160 80" style="enable-background:new 0 0 160 80;" xml:space="preserve">
<style type="text/css">
	.st0{fill:#FFFFFF;}
	.st1{font-family:'MyriadPro-Regular';}
	.st2{font-size:98px;}
</style>
<g>
	<path class="st0" d="M40,7c18.2,0,33,14.8,33,33S58.2,73,40,73S7,58.2,7,40S21.8,7,40,7 M40,0C17.91,0,0,17.91,0,40s17.91,40,40,40
		s40-17.91,40-40S62.09,0,40,0L40,0z"/>
</g>
<g>
	<path class="st0" d="M40,27c7.17,0,13,5.83,13,13s-5.83,13-13,13s-13-5.83-13-13S32.83,27,40,27 M40,20c-11.05,0-20,8.95-20,20
		s8.95,20,20,20s20-8.95,20-20S51.05,20,40,20L40,20z"/>
</g>
<text transform="matrix(1 0 0 1 96.7773 79.8887)" class="st0 st1 st2">f</text>
</svg>
